<svg xmlns="http://www.w3.org/2000/svg" viewBox="0 0 1600 900" preserveAspectRatio="xMidYMid slice">
  <defs>
    <radialGradient id="sun" cx="72%" cy="16%" r="48%">
      <stop offset="0" stop-color="#fbcfe8" stop-opacity=".7"/>
      <stop offset="1" stop-color="#fff7fb" stop-opacity="0"/>
    </radialGradient>
    <linearGradient id="bg" x1="0" y1="0" x2="0" y2="1">
      <stop offset="0" stop-color="#fff7fb"/>
      <stop offset=".55" stop-color="#ffffff"/>
      <stop offset="1" stop-color="#fff1f7"/>
    </linearGradient>
  </defs>
  <rect width="1600" height="900" fill="url(#bg)"/>
  <rect width="1600" height="900" fill="url(#sun)"/>
  <g fill="none" stroke="#7c2d45" stroke-width="10" stroke-linecap="round" opacity=".22">
    <path d="M-70 160C140 118 230 84 350-20"/>
    <path d="M1510-40c-70 130-158 208-332 286"/>
  </g>
  <g fill="#f9a8d4" opacity=".72">
    <path d="M182 130c22-30 54-30 76 0-26 16-50 16-76 0Z"/>
    <path d="M278 84c20-28 50-28 70 0-24 15-46 15-70 0Z"/>
    <path d="M1214 176c22-30 54-30 76 0-26 16-50 16-76 0Z"/>
    <path d="M1336 94c20-28 50-28 70 0-24 15-46 15-70 0Z"/>
    <path d="M108 660c18-24 42-24 60 0-20 12-40 12-60 0Z"/>
    <path d="M1430 700c18-24 42-24 60 0-20 12-40 12-60 0Z"/>
  </g>
  <g fill="#fb7185" opacity=".28">
    <circle cx="340" cy="180" r="14"/>
    <circle cx="1240" cy="270" r="11"/>
    <circle cx="1380" cy="585" r="9"/>
    <circle cx="190" cy="560" r="8"/>
  </g>
</svg>
