<svg xmlns="http://www.w3.org/2000/svg" viewBox="0 0 1600 900" preserveAspectRatio="xMidYMid slice">
  <defs>
    <linearGradient id="bg" x1="0" y1="0" x2="0" y2="1">
      <stop offset="0" stop-color="#08101d"/>
      <stop offset=".58" stop-color="#111827"/>
      <stop offset="1" stop-color="#050914"/>
    </linearGradient>
    <linearGradient id="floor" x1="0" y1=".45" x2="0" y2="1">
      <stop offset="0" stop-color="#0f172a" stop-opacity="0"/>
      <stop offset="1" stop-color="#030712"/>
    </linearGradient>
  </defs>
  <rect width="1600" height="900" fill="url(#bg)"/>
  <rect y="410" width="1600" height="490" fill="url(#floor)"/>
  <g opacity=".34" stroke="#38bdf8" stroke-width="2">
    <path d="M0 130h1600M0 230h1600M0 330h1600"/>
    <path d="M180 0v900M420 0v900M860 0v900M1240 0v900"/>
  </g>
  <g opacity=".5" fill="#f97316">
    <rect x="0" y="282" width="1600" height="8"/>
    <rect x="0" y="298" width="1600" height="3"/>
    <rect x="115" y="350" width="350" height="10"/>
    <rect x="1060" y="350" width="430" height="10"/>
  </g>
  <g opacity=".24" stroke="#f97316" stroke-width="3">
    <path d="M520 900 760 420M1080 900 880 420"/>
    <path d="M0 820h1600M0 720h1600M0 625h1600"/>
  </g>
  <g opacity=".2" fill="#38bdf8">
    <circle cx="310" cy="205" r="56"/>
    <circle cx="1320" cy="170" r="72"/>
  </g>
</svg>
