<svg xmlns="http://www.w3.org/2000/svg" viewBox="0 0 1600 900" preserveAspectRatio="xMidYMid slice">
  <defs>
    <linearGradient id="bg" x1="0" y1="0" x2="1" y2="1">
      <stop offset="0" stop-color="#06124a"/>
      <stop offset="0.55" stop-color="#07123a"/>
      <stop offset="1" stop-color="#03081f"/>
    </linearGradient>
    <filter id="soft" x="-20%" y="-20%" width="140%" height="140%">
      <feGaussianBlur stdDeviation="18"/>
    </filter>
  </defs>
  <rect width="1600" height="900" fill="url(#bg)"/>
  <g opacity=".18">
    <path d="M-120 90 520 0 360 280 -40 360Z" fill="#e11d2e"/>
    <path d="M1040 -80 1740 120 1440 360 960 260Z" fill="#facc15"/>
    <path d="M-80 740 620 560 500 1000 -80 1000Z" fill="#2563eb"/>
  </g>
  <g opacity=".2" filter="url(#soft)">
    <circle cx="280" cy="210" r="120" fill="#ef4444"/>
    <circle cx="1320" cy="190" r="150" fill="#facc15"/>
    <circle cx="1210" cy="760" r="180" fill="#2563eb"/>
  </g>
  <g opacity=".18" stroke="#fff" stroke-width="2">
    <path d="M0 120h1600M0 180h1600M0 240h1600M0 300h1600M0 360h1600M0 420h1600M0 480h1600M0 540h1600M0 600h1600M0 660h1600M0 720h1600"/>
  </g>
  <g opacity=".35" fill="#fff7ad">
    <path d="M1260 104l18 44 44 18-44 18-18 44-18-44-44-18 44-18Z"/>
    <path d="M310 690l10 24 24 10-24 10-10 24-10-24-24-10 24-10Z"/>
  </g>
</svg>
