<svg xmlns="http://www.w3.org/2000/svg" viewBox="0 0 1600 900" preserveAspectRatio="xMidYMid slice">
  <defs>
    <linearGradient id="bg" x1="0" y1="0" x2="0" y2="1">
      <stop offset="0" stop-color="#070a20"/>
      <stop offset=".6" stop-color="#0b1030"/>
      <stop offset="1" stop-color="#090a1c"/>
    </linearGradient>
    <linearGradient id="tail" x1="0" y1="0" x2="1" y2="0">
      <stop offset="0" stop-color="#22d3ee" stop-opacity="0"/>
      <stop offset=".55" stop-color="#67e8f9" stop-opacity=".55"/>
      <stop offset="1" stop-color="#fff" stop-opacity=".95"/>
    </linearGradient>
    <filter id="blur"><feGaussianBlur stdDeviation="18"/></filter>
  </defs>
  <rect width="1600" height="900" fill="url(#bg)"/>
  <g opacity=".5" filter="url(#blur)">
    <circle cx="300" cy="120" r="180" fill="#7c3aed"/>
    <circle cx="1260" cy="90" r="230" fill="#0ea5e9"/>
    <circle cx="820" cy="920" r="260" fill="#f472b6"/>
  </g>
  <path d="M-160 410C310 230 780 100 1520 48" fill="none" stroke="url(#tail)" stroke-width="26" opacity=".72"/>
  <path d="M110 462C550 286 1000 180 1620 138" fill="none" stroke="#818cf8" stroke-width="5" opacity=".28"/>
  <g fill="#ffffff" opacity=".7">
    <circle cx="210" cy="210" r="2"/>
    <circle cx="420" cy="150" r="2"/>
    <circle cx="740" cy="250" r="1.8"/>
    <circle cx="1080" cy="190" r="2.2"/>
    <circle cx="1330" cy="320" r="1.7"/>
    <path d="M1370 64l8 20 20 8-20 8-8 20-8-20-20-8 20-8Z"/>
  </g>
</svg>
